<mxfile host="app.diagrams.net" modified="2023-10-12T16:23:41.335Z" agent="Mozilla/5.0 (Macintosh; Intel Mac OS X 10_15_7) AppleWebKit/537.36 (KHTML, like Gecko) Chrome/117.0.0.0 Safari/537.36" version="22.0.4" etag="Zhq1nzMzNTTXpMeUP_Iy" type="github">
  <diagram name="Page-1" id="0MRgfjU_HltpbR9C0p2H">
    <mxGraphModel>
      <root>
        <mxCell id="0" />
        <mxCell id="1" parent="0" />
      </root>
    </mxGraphModel>
  </diagram>
</mxfile>
